<svg xmlns="http://www.w3.org/2000/svg" width="730" height="610" viewBox="0 0 730 610">
<g>
<path d="M 0.00 0.00 L 730.00 0.00 L 730.00 610.00 L 0.00 610.00 ZM 222.00 347.98 C224.48,348.41 233.70,348.81 242.50,348.87 C265.59,349.03 285.35,346.26 313.63,338.90 L 329.50 334.77 L 347.00 335.54 C356.62,335.97 380.48,336.38 400.00,336.45 C434.65,336.58 436.00,336.66 456.25,339.79 C481.45,343.69 490.07,343.83 503.50,340.57 C527.25,334.81 537.71,325.55 534.85,312.83 C533.91,308.64 530.37,301.99 525.38,295.03 C523.85,292.89 523.10,290.75 523.42,289.47 C524.96,283.32 527.11,266.01 527.64,255.50 C528.25,243.34 526.55,225.15 523.53,211.50 C520.19,196.40 512.87,177.39 509.01,173.80 C504.82,169.90 504.98,172.50 509.51,182.31 C522.33,210.05 527.01,243.61 522.40,274.72 C520.79,285.63 519.89,288.00 517.36,288.00 C514.32,288.00 513.68,283.59 515.53,275.35 C517.74,265.49 518.45,249.78 517.13,240.00 C515.63,228.84 513.05,213.91 512.04,210.50 C503.48,181.61 495.09,165.58 478.79,147.00 C469.42,136.31 463.52,131.33 448.71,121.59 C429.41,108.89 411.86,102.07 386.50,97.40 C374.26,95.14 370.62,94.88 357.50,95.29 C300.76,97.06 250.38,129.08 224.53,179.80 C218.38,191.87 212.57,210.79 210.03,227.00 C207.62,242.42 209.23,276.72 213.17,293.69 C215.27,302.75 210.59,308.04 207.34,300.28 C205.18,295.09 201.20,269.98 200.43,256.64 C199.01,232.08 205.25,202.34 216.52,179.85 C226.32,160.30 237.13,145.76 253.16,130.58 C258.30,125.71 261.97,121.53 261.32,121.30 C257.24,119.85 234.37,142.80 224.77,158.00 C206.93,186.24 196.97,219.41 197.01,250.47 C197.02,262.79 199.74,283.26 203.03,295.90 C204.66,302.17 206.00,308.14 206.00,309.18 C206.00,310.21 204.56,313.86 202.81,317.28 C200.27,322.23 199.60,324.77 199.56,329.69 C199.50,335.43 199.75,336.14 202.95,339.44 C206.55,343.17 214.32,346.65 222.00,347.98 ZM 402.80 307.19 C400.25,309.57 399.00,309.98 394.64,309.87 C391.81,309.80 386.80,309.19 383.50,308.52 C370.56,305.89 361.39,304.84 351.98,304.92 L 342.16 305.00 L 336.59 299.91 C328.46,292.48 321.43,282.60 317.80,273.50 C314.85,266.10 314.60,264.59 314.55,253.50 C314.48,236.79 316.22,231.71 324.97,222.99 C330.63,217.35 332.56,216.12 339.50,213.73 C349.59,210.26 362.36,209.96 371.00,213.00 C377.72,215.37 380.00,215.48 380.00,213.44 C380.00,211.50 371.07,207.46 362.12,205.35 C350.22,202.55 335.73,205.53 326.32,212.70 C324.33,214.22 322.37,214.97 321.37,214.59 C319.93,214.03 319.79,212.57 320.29,202.73 C321.21,184.56 327.07,168.95 340.10,150.00 C350.07,135.48 354.79,130.00 357.31,130.00 C359.97,130.00 364.80,134.43 375.60,146.76 C388.57,161.59 395.82,174.84 398.55,188.70 C401.02,201.29 398.88,223.00 395.17,223.00 C394.73,223.00 393.51,222.34 392.44,221.53 C388.81,218.79 385.03,220.12 388.44,222.95 C391.08,225.14 399.76,240.60 402.28,247.59 C405.81,257.40 409.00,275.23 409.00,285.16 C409.00,295.73 406.84,303.42 402.80,307.19 ZM 508.64 330.49 C502.11,332.68 499.07,333.02 482.87,333.41 C472.77,333.65 459.33,333.45 453.00,332.95 C436.05,331.62 420.73,331.41 410.00,332.37 L 409.45 332.42 C405.80,332.75 403.53,332.95 401.30,332.73 C397.54,332.37 393.88,330.80 383.86,326.60 C378.68,324.43 371.48,322.39 365.86,321.49 C356.42,319.99 343.72,316.12 341.74,314.14 C340.24,312.64 344.58,311.15 354.17,309.86 C362.81,308.70 375.66,309.90 383.22,312.59 C390.13,315.04 398.62,315.32 412.82,313.57 C426.62,311.87 433.13,309.93 445.50,303.82 C449.35,301.92 454.52,299.78 457.00,299.06 C468.83,295.63 470.77,295.14 474.50,294.66 C476.70,294.38 480.55,294.48 483.06,294.89 C488.33,295.74 490.00,295.39 490.00,293.44 C490.00,290.49 482.55,288.00 473.72,288.00 C463.75,288.00 458.75,289.37 444.93,295.89 C432.82,301.60 417.71,306.98 413.75,306.99 C410.58,307.00 410.34,305.80 412.41,300.27 C414.31,295.22 415.04,285.54 413.95,280.00 C413.47,277.52 411.98,269.65 410.64,262.50 C409.30,255.35 407.68,247.53 407.03,245.12 C406.21,242.08 406.17,240.43 406.90,239.70 C407.98,238.62 422.12,238.55 427.50,239.59 C435.54,241.16 442.37,244.59 450.47,251.14 C455.16,254.94 464.51,261.10 471.25,264.85 C477.99,268.59 486.20,273.15 489.50,274.97 C511.29,287.03 529.00,303.33 529.00,311.31 C529.00,315.62 524.54,322.63 519.96,325.52 C517.80,326.89 512.71,329.12 508.64,330.49 ZM 275.50 337.05 C263.12,339.07 236.74,339.59 227.00,338.00 C214.41,335.95 206.00,330.09 206.00,323.38 C206.00,318.34 213.78,305.99 221.73,298.41 C227.48,292.92 239.42,286.06 250.27,282.00 C253.57,280.77 259.49,277.07 264.25,273.28 C271.42,267.57 285.29,258.00 286.40,258.00 C286.61,258.00 290.32,256.01 294.65,253.58 C298.98,251.14 303.85,249.00 305.48,248.83 L 308.44 248.50 L 310.12 258.19 C313.55,277.98 318.00,287.11 329.79,298.59 C337.22,305.82 337.93,306.82 336.46,308.03 C333.89,310.17 316.87,307.85 302.49,303.40 C285.26,298.07 271.42,295.02 264.34,295.01 C254.05,294.99 242.00,299.70 242.00,303.73 C242.00,304.88 243.08,304.99 247.75,304.35 C260.13,302.65 267.50,303.55 284.50,308.85 C305.91,315.52 305.75,315.48 323.00,318.57 C327.67,319.40 334.88,321.01 339.00,322.13 C343.12,323.25 350.63,325.15 355.67,326.34 C360.72,327.53 365.12,328.79 365.46,329.13 C365.80,329.46 354.73,329.69 340.87,329.62 C321.52,329.53 315.58,329.79 315.25,330.75 C315.02,331.44 313.72,332.00 312.35,332.00 C309.28,332.00 291.52,334.43 275.50,337.05 ZM 301.57 499.11 C302.24,500.20 311.52,499.90 353.00,497.44 C409.78,494.07 449.83,492.80 513.33,492.37 L 580.16 491.91 L 590.25 486.70 C595.80,483.84 600.52,480.94 600.75,480.25 C601.59,477.74 563.76,478.72 476.50,483.47 C451.20,484.84 424.88,486.41 418.00,486.96 C408.40,487.71 375.41,489.79 350.00,491.23 C349.17,491.28 345.80,491.23 342.50,491.13 L 336.50 490.94 L 343.50 487.92 C347.35,486.26 351.51,484.48 352.75,483.97 C355.98,482.64 355.68,479.23 352.25,478.27 C347.90,477.05 235.85,477.53 211.50,478.87 C154.05,482.03 95.30,487.77 89.25,490.82 C85.95,492.48 84.98,494.02 87.25,493.98 C87.94,493.97 93.68,493.11 100.00,492.07 C106.32,491.03 115.78,489.86 121.00,489.46 C126.22,489.07 130.85,488.54 131.29,488.29 C131.72,488.04 135.23,487.64 139.09,487.39 C142.95,487.15 152.04,486.47 159.30,485.88 C186.75,483.64 198.87,483.17 247.50,482.46 C294.07,481.79 327.06,482.61 334.79,484.65 C338.11,485.53 336.96,487.32 332.42,488.34 C325.46,489.90 304.99,495.93 302.94,497.03 C301.84,497.62 301.22,498.55 301.57,499.11 ZM 287.84 250.84 C277.01,256.11 272.79,254.89 260.96,243.05 C252.57,234.65 247.40,225.80 244.53,214.91 C242.54,207.39 241.94,193.90 243.56,193.33 C244.14,193.13 248.21,195.78 252.58,199.23 C261.40,206.17 265.01,207.93 275.86,210.53 C282.49,212.13 284.32,212.17 294.49,211.00 C300.70,210.29 306.40,209.94 307.17,210.23 C307.93,210.53 309.84,213.31 311.41,216.41 C314.59,222.69 314.57,225.90 311.28,235.96 C309.50,241.42 309.50,241.43 301.92,244.55 C297.74,246.27 291.41,249.10 287.84,250.84 ZM 459.58 243.49 C456.78,245.42 453.81,246.95 452.99,246.88 C452.17,246.82 448.80,245.25 445.50,243.39 C436.82,238.50 427.68,235.97 415.86,235.19 L 405.50 234.50 L 405.18 231.16 C404.71,226.29 408.58,214.41 411.24,212.55 C412.63,211.57 415.66,211.00 419.47,211.00 C427.68,210.99 441.56,208.64 449.19,205.95 C456.04,203.55 461.35,200.73 470.20,194.81 C476.40,190.66 478.46,190.16 479.39,192.58 C481.41,197.85 478.41,215.16 473.77,225.00 C469.39,234.29 465.41,239.47 459.58,243.49 ZM 311.34 464.01 C321.94,466.24 330.28,463.09 334.01,455.43 C339.74,443.71 332.19,431.00 319.50,431.00 C310.22,431.00 303.57,424.61 303.57,415.68 C303.57,405.22 311.34,398.38 321.87,399.57 C328.43,400.31 334.22,402.73 339.46,406.94 C347.62,413.49 350.90,421.41 351.07,435.00 C351.16,442.18 351.22,442.37 352.54,439.50 C354.36,435.52 354.35,426.55 352.52,420.38 C350.35,413.06 344.33,405.03 338.31,401.43 C328.30,395.43 314.10,394.87 303.41,400.04 C298.05,402.64 290.50,410.68 287.68,416.78 C284.43,423.84 284.57,437.60 287.95,444.50 C292.82,454.42 301.95,462.03 311.34,464.01 ZM 310.71 193.93 C308.92,201.41 307.73,201.57 302.93,195.00 C296.39,186.03 293.53,175.73 294.23,163.59 C294.83,153.30 297.66,146.96 305.99,137.25 C312.62,129.52 314.58,128.68 319.03,131.65 C323.67,134.74 331.00,142.42 331.00,144.19 C331.00,145.17 329.13,149.01 326.84,152.73 C319.19,165.16 315.09,175.64 310.71,193.93 ZM 417.98 196.75 C416.24,200.72 413.85,202.19 412.56,200.10 C412.25,199.60 409.93,192.75 407.39,184.88 C401.93,167.92 399.71,162.73 392.88,150.89 C392.47,150.18 392.08,149.52 391.73,148.91 C389.70,145.45 388.62,143.61 388.78,141.88 C388.98,139.61 391.31,137.53 396.41,132.25 C399.73,128.81 403.13,126.01 403.97,126.03 C407.18,126.10 410.35,129.83 416.71,141.00 C420.73,148.07 424.00,160.94 424.00,169.73 C424.00,176.90 421.21,189.42 417.98,196.75 ZM 386.42 456.63 C388.32,457.49 392.00,457.92 396.02,457.74 C404.40,457.38 408.28,454.77 411.88,447.09 C414.33,441.86 414.52,440.40 414.82,424.52 C415.16,406.58 415.69,404.45 419.61,405.44 C422.66,406.20 423.52,404.45 421.57,401.47 C419.40,398.15 415.58,397.35 411.40,399.34 C408.89,400.54 407.36,400.71 405.45,399.98 C403.55,399.26 402.11,399.41 399.88,400.56 C396.44,402.34 396.53,404.35 400.08,404.82 C404.53,405.41 405.00,407.28 405.00,424.24 C405.00,441.18 404.30,444.27 399.78,447.44 C396.37,449.83 392.43,449.36 388.80,446.11 L 385.57 443.22 L 384.63 428.86 C383.47,411.14 384.16,405.27 387.57,403.97 C390.68,402.79 390.65,401.47 387.45,399.38 C385.25,397.93 384.39,397.88 381.03,398.99 C378.89,399.70 376.14,400.01 374.92,399.69 C372.34,399.01 366.00,401.37 366.00,403.00 C366.00,403.61 367.38,404.59 369.07,405.17 C370.80,405.78 372.55,407.31 373.07,408.69 C373.58,410.03 374.00,417.96 374.01,426.32 C374.01,434.67 374.47,443.15 375.03,445.17 C376.12,449.10 381.31,454.32 386.42,456.63 ZM 250.67 455.80 C258.17,459.29 260.05,459.56 265.10,457.85 C275.58,454.29 280.52,444.27 276.51,434.68 C274.54,429.96 269.84,426.53 260.33,422.88 C256.02,421.23 251.49,419.22 250.25,418.42 C247.15,416.40 247.36,412.65 250.73,409.99 C253.00,408.21 254.24,407.96 257.98,408.51 C263.28,409.29 266.00,411.38 266.00,414.65 C266.00,418.23 268.88,417.53 270.54,413.56 C271.33,411.66 272.65,409.73 273.47,409.28 C274.29,408.82 275.25,406.99 275.61,405.22 C276.11,402.69 275.91,402.00 274.68,402.00 C273.82,402.00 272.84,402.45 272.50,403.00 C271.53,404.56 268.28,404.18 264.00,402.00 C258.88,399.39 251.15,399.37 246.07,401.97 C238.74,405.70 235.90,416.63 240.46,423.58 C242.33,426.44 245.52,428.01 255.69,431.07 C259.64,432.26 263.80,434.22 264.92,435.42 C272.75,443.75 262.46,453.16 252.36,446.91 C248.63,444.61 247.00,442.22 247.00,439.07 C247.00,437.93 246.58,437.00 246.07,437.00 C244.35,437.00 242.00,440.13 242.00,442.42 C242.00,443.67 241.10,445.50 240.00,446.50 C238.76,447.62 238.00,449.58 238.00,451.65 C238.00,455.23 238.89,455.71 241.94,453.81 C243.52,452.82 245.00,453.16 250.67,455.80 ZM 296.42 203.13 C295.89,203.99 286.37,204.15 282.50,203.36 C281.40,203.14 277.35,202.00 273.50,200.83 C260.41,196.86 258.00,191.67 259.66,171.07 C260.30,163.18 260.89,160.46 262.15,159.68 C263.39,158.89 266.32,159.61 274.15,162.62 L 284.50 166.61 L 287.54 178.55 C289.21,185.12 292.01,193.15 293.76,196.38 C295.52,199.62 296.71,202.66 296.42,203.13 ZM 438.56 200.92 C434.20,202.07 429.36,203.00 427.81,203.00 C424.37,203.00 424.18,201.16 426.89,194.29 C427.92,191.65 429.45,185.51 430.29,180.62 C431.17,175.42 432.61,170.66 433.75,169.12 C435.05,167.37 439.29,165.05 446.46,162.14 L 447.02 161.91 C453.39,159.33 456.74,157.97 458.50,159.10 C460.45,160.35 460.46,164.64 460.47,173.71 L 460.48 174.43 C460.50,186.46 460.29,188.13 458.42,190.67 C455.57,194.56 448.02,198.45 438.56,200.92 ZM 250.88 277.81 C244.84,281.47 242.38,280.82 235.52,273.75 C229.45,267.50 220.00,253.00 220.00,249.94 C220.00,248.54 222.05,248.22 234.55,247.65 L 235.35 247.61 C244.18,247.21 247.89,247.04 251.04,248.29 C253.43,249.24 255.49,251.00 259.19,254.08 C262.34,256.70 265.83,259.13 266.95,259.49 C268.08,259.84 269.00,260.94 269.00,261.93 C269.00,263.76 257.62,273.72 250.88,277.81 ZM 493.58 457.25 C495.15,458.80 496.00,457.89 496.00,454.65 C496.00,452.58 495.24,450.62 494.00,449.50 C492.90,448.50 492.00,446.69 492.00,445.47 C492.00,442.58 488.92,439.78 488.17,441.99 C487.90,442.81 486.41,444.75 484.86,446.29 C482.38,448.77 481.43,449.07 476.80,448.80 C469.37,448.37 469.03,447.40 469.01,426.45 C469.00,408.40 469.34,407.00 473.70,407.00 C476.93,407.00 476.70,403.70 473.29,401.02 C470.71,398.99 465.96,398.90 465.23,400.87 C465.09,401.27 463.39,401.41 461.47,401.19 C455.46,400.48 452.45,405.52 457.50,407.82 L 460.00 408.96 L 459.96 425.23 C459.91,443.30 459.05,449.76 456.45,451.66 C453.50,453.82 456.34,455.92 462.34,456.01 C487.90,456.40 492.92,456.60 493.58,457.25 ZM 277.51 534.01 C278.01,534.82 280.79,535.09 286.22,534.84 C293.50,534.51 294.40,534.23 296.61,531.67 L 299.02 528.87 L 302.74 531.93 C307.68,536.01 311.66,536.01 315.56,531.93 C319.46,527.86 319.69,521.43 316.08,517.58 C312.71,514.00 305.97,513.94 302.45,517.45 C301.10,518.80 300.00,520.60 300.00,521.45 C300.00,523.53 298.68,523.40 296.63,521.14 C295.13,519.49 295.11,519.15 296.47,518.02 C297.31,517.32 298.00,515.26 298.00,513.43 C298.00,508.40 295.24,507.00 285.28,507.00 C277.76,507.00 275.31,507.84 278.00,509.50 C279.40,510.36 279.30,530.30 277.89,531.71 C277.28,532.32 277.10,533.36 277.51,534.01 ZM 495.14 262.93 C492.47,266.97 490.78,268.55 488.98,268.70 C486.24,268.91 465.10,258.03 463.53,255.60 C462.14,253.42 466.13,249.55 473.46,245.97 C477.95,243.77 482.45,242.63 491.00,241.52 C505.41,239.64 506.00,239.64 506.00,241.63 C506.00,243.74 499.86,255.77 495.14,262.93 ZM 431.94 533.53 C438.74,537.23 444.96,533.51 445.75,525.27 C446.18,520.75 445.94,519.85 443.67,517.57 C441.65,515.56 440.10,515.00 436.54,515.00 C431.92,515.00 431.80,515.08 427.15,520.99 C425.32,523.32 425.07,523.37 423.35,521.86 C422.33,520.96 419.56,519.26 417.19,518.06 C413.81,516.36 412.94,515.42 413.19,513.70 C413.44,511.90 414.25,511.45 417.62,511.20 C421.18,510.94 421.82,511.20 422.33,513.16 C423.07,515.98 424.48,514.73 424.57,511.17 C424.67,507.74 423.53,507.03 417.94,507.02 C406.70,506.98 405.58,518.75 416.50,522.23 C419.92,523.32 420.54,523.95 420.80,526.63 C421.06,529.29 420.68,529.91 418.30,530.74 C415.45,531.73 411.00,530.58 411.00,528.85 C411.00,528.38 410.52,528.00 409.93,528.00 C409.35,528.00 409.01,529.24 409.18,530.75 C409.47,533.28 409.89,533.53 414.34,533.81 C419.67,534.15 423.43,532.38 424.49,529.03 C425.37,526.27 426.81,526.48 428.21,529.57 C428.86,530.98 430.53,532.76 431.94,533.53 ZM 430.50 103.34 C435.26,105.21 437.00,105.37 437.00,103.94 C437.00,101.28 411.65,92.04 396.00,88.99 C365.60,83.08 338.26,84.44 311.00,93.22 C300.52,96.59 298.37,97.77 299.91,99.31 C300.57,99.97 302.87,99.59 306.73,98.18 C309.93,97.01 318.39,94.64 325.53,92.92 C336.81,90.19 340.86,89.71 356.67,89.25 C371.23,88.83 376.69,89.06 384.17,90.42 C398.32,93.01 408.33,95.05 410.00,95.70 C410.83,96.02 414.88,97.51 419.00,99.02 C423.12,100.53 428.30,102.47 430.50,103.34 ZM 375.92 532.08 C379.27,535.43 382.34,535.76 387.44,533.33 C390.77,531.74 391.06,531.75 393.00,533.50 C394.55,534.90 395.33,535.07 396.20,534.20 C397.07,533.33 396.91,532.56 395.55,531.05 C394.02,529.36 393.90,528.44 394.77,525.02 C396.04,520.00 394.51,518.58 391.82,522.27 L 389.94 524.85 L 385.47 520.07 C380.84,515.12 379.81,511.67 382.64,510.58 C383.54,510.24 385.39,510.68 386.75,511.57 C390.12,513.78 392.14,511.92 389.52,509.02 C388.29,507.66 386.43,507.00 383.87,507.00 C379.10,507.00 376.46,510.31 377.27,515.28 C377.67,517.72 377.21,519.25 375.40,521.51 C372.23,525.48 372.38,528.53 375.92,532.08 ZM 325.74 534.31 C328.81,535.11 330.08,535.03 332.17,533.91 C333.65,533.12 334.52,533.12 335.31,533.91 C336.70,535.30 339.69,535.32 340.54,533.94 C340.90,533.35 340.49,532.10 339.63,531.15 C338.45,529.84 338.00,526.65 337.78,517.97 C337.53,507.74 337.30,506.49 335.64,506.17 C333.15,505.69 331.02,507.77 332.85,508.90 C333.58,509.36 334.02,510.80 333.84,512.11 C333.55,514.14 332.86,514.55 329.28,514.81 C323.94,515.19 321.00,518.53 321.00,524.18 C321.00,528.82 323.27,533.66 325.74,534.31 ZM 234.92 532.08 C238.78,535.93 242.90,535.96 247.15,532.16 C249.87,529.73 250.33,528.63 250.33,524.65 C250.33,518.20 247.33,515.00 241.28,515.00 C235.13,515.00 232.00,518.22 232.00,524.53 C232.00,528.31 232.54,529.69 234.92,532.08 ZM 212.45 533.91 C212.82,534.51 214.64,535.00 216.50,535.00 C220.19,535.00 221.87,533.47 220.11,531.71 C219.50,531.10 219.00,528.91 219.00,526.85 L 219.00 523.11 L 223.75 522.80 C227.17,522.59 228.50,522.08 228.50,521.00 C228.50,519.92 227.17,519.41 223.75,519.20 L 219.00 518.89 L 219.00 511.00 L 223.64 511.00 C226.90,511.00 228.66,511.52 229.57,512.75 C231.25,515.03 233.31,513.21 232.83,509.87 C232.51,507.58 232.17,507.49 222.25,507.22 C212.83,506.95 210.01,507.65 213.00,509.50 C214.40,510.36 214.30,530.30 212.89,531.71 C212.28,532.32 212.08,533.31 212.45,533.91 ZM 451.00 532.27 C452.81,534.57 453.66,534.80 460.02,534.76 C467.06,534.72 469.20,533.80 467.11,531.71 C466.50,531.10 466.00,527.58 466.00,523.88 C466.00,515.34 465.46,514.00 462.00,514.00 C459.23,514.00 457.22,516.40 459.04,517.53 C459.57,517.85 460.00,520.50 460.00,523.40 C460.00,527.31 459.51,529.13 458.11,530.40 C456.32,532.02 456.12,531.97 454.11,529.42 C452.51,527.38 452.00,525.32 452.00,520.87 C452.00,515.28 451.88,515.00 449.50,515.00 C446.97,515.00 446.16,516.36 448.00,517.50 C448.55,517.84 449.00,520.73 449.00,523.92 C449.00,528.21 449.52,530.39 451.00,532.27 ZM 313.40 421.49 C317.71,425.80 324.49,424.05 327.01,417.98 C329.87,411.08 320.33,404.13 314.23,408.67 C310.30,411.59 309.89,417.98 313.40,421.49 ZM 325.07 453.00 C322.67,456.39 317.35,456.85 313.70,453.98 C311.50,452.25 311.00,451.04 311.00,447.48 C311.00,442.26 313.45,440.00 319.13,440.00 C322.03,440.00 323.38,440.67 325.44,443.11 C328.28,446.48 328.20,448.57 325.07,453.00 ZM 348.00 539.82 C348.00,540.47 348.38,541.00 348.85,541.00 C350.53,541.00 352.84,537.40 353.99,533.00 C355.28,528.03 359.76,518.27 361.13,517.42 C363.09,516.21 361.79,515.00 358.52,515.00 C355.23,515.00 355.08,515.15 355.62,517.86 C356.26,521.05 353.53,527.44 351.94,526.46 C350.27,525.43 348.13,519.23 348.69,517.06 C349.15,515.32 348.77,515.00 346.28,515.00 C342.56,515.00 341.64,515.90 343.29,517.92 C344.00,518.79 345.89,522.32 347.48,525.77 C350.08,531.37 350.26,532.39 349.19,535.34 C348.54,537.16 348.00,539.17 348.00,539.82 ZM 385.60 293.72 C389.98,299.47 391.41,297.69 387.91,290.83 L 385.83 286.74 L 392.92 280.12 C396.82,276.48 400.01,272.94 400.01,272.25 C399.99,269.73 395.10,270.94 392.82,274.03 C391.59,275.69 388.60,278.21 386.18,279.63 C381.86,282.17 381.79,282.29 382.44,286.32 C382.80,288.58 384.22,291.91 385.60,293.72 ZM 253.45 533.91 C253.82,534.51 255.41,535.00 257.00,535.00 C260.25,535.00 261.78,533.38 260.11,531.71 C258.61,530.21 258.70,522.77 260.25,520.76 C260.94,519.87 262.62,519.00 263.99,518.82 C265.36,518.64 266.62,517.76 266.79,516.85 C267.06,515.43 266.09,515.20 260.05,515.23 C254.79,515.27 253.00,515.62 253.00,516.64 C253.00,517.39 253.45,518.00 254.00,518.00 C255.38,518.00 255.27,530.33 253.89,531.71 C253.28,532.32 253.08,533.31 253.45,533.91 ZM 472.56 531.75 C471.86,533.75 472.09,534.00 474.63,534.00 L 477.50 534.00 L 477.19 521.75 C477.03,515.01 476.70,508.94 476.48,508.25 C476.25,507.56 475.10,507.00 473.92,507.00 C472.30,507.00 471.95,507.42 472.46,508.75 C473.43,511.25 473.51,529.07 472.56,531.75 ZM 439.43 530.43 C438.56,531.29 437.49,532.00 437.04,532.00 C435.12,532.00 431.96,528.26 431.39,525.31 C430.88,522.68 431.25,521.67 433.49,519.60 C436.03,517.25 436.35,517.18 438.56,518.63 C442.57,521.26 442.98,526.87 439.43,530.43 ZM 312.05 529.95 C309.45,532.55 308.57,532.52 306.00,529.77 C302.57,526.09 302.37,523.17 305.34,520.20 C307.57,517.98 308.35,517.74 310.72,518.57 C313.08,519.39 313.55,520.17 313.80,523.71 C314.04,526.87 313.61,528.39 312.05,529.95 ZM 244.00 530.00 C241.39,532.61 240.56,532.53 238.07,529.37 C233.20,523.17 237.60,515.58 244.07,519.04 C246.77,520.48 246.73,527.27 244.00,530.00 ZM 332.94 529.58 C331.24,531.63 327.25,531.33 326.04,529.07 C323.23,523.82 325.99,517.63 330.88,518.20 C333.25,518.47 333.53,518.95 333.81,523.33 C333.98,526.03 333.60,528.78 332.94,529.58 ZM 293.43 529.07 C292.29,530.34 290.37,531.00 287.85,531.00 C284.04,531.00 284.00,530.96 284.00,527.06 C284.00,524.89 284.39,522.88 284.86,522.59 C285.33,522.30 287.69,522.39 290.10,522.80 C295.07,523.65 296.28,525.93 293.43,529.07 ZM 292.48 517.38 C290.86,518.99 285.93,519.60 284.67,518.33 C284.30,517.97 284.00,516.14 284.00,514.28 L 284.00 510.89 L 288.75 511.20 C292.71,511.45 293.55,511.85 293.80,513.63 C293.97,514.79 293.38,516.48 292.48,517.38 ZM 385.07 530.96 L 385.02 530.99 C383.93,531.57 383.32,531.90 382.71,531.87 C381.91,531.84 381.14,531.17 379.34,529.62 C376.85,527.48 376.69,526.97 377.76,524.62 C379.27,521.30 380.68,521.32 384.20,524.69 C387.49,527.84 387.73,529.54 385.07,530.96 ZM 356.09 298.61 C356.72,299.37 357.53,299.98 357.87,299.96 C359.62,299.84 367.45,295.33 367.78,294.25 C368.38,292.32 364.16,292.74 359.28,295.11 C355.76,296.81 355.15,297.48 356.09,298.61 Z" fill="rgb(1,1,1)"/>
<path d="M 353.87 325.91 C356.36,326.34 359.18,326.74 361.78,327.01 C375.85,328.47 378.18,328.95 377.73,330.31 C377.43,331.20 368.90,331.50 343.92,331.50 L 342.37 331.50 C328.46,331.50 320.44,331.50 313.35,331.90 C314.30,331.71 315.08,331.26 315.25,330.75 C315.58,329.79 321.52,329.53 340.87,329.62 C354.73,329.69 365.80,329.46 365.46,329.13 C365.12,328.79 360.72,327.53 355.67,326.34 C355.10,326.21 354.50,326.06 353.87,325.91 ZM 451.30 532.65 C452.46,533.70 454.17,533.83 459.51,533.73 C466.53,533.59 468.36,532.96 466.00,531.50 C465.45,531.16 465.00,527.52 465.00,523.41 C465.00,515.66 464.06,514.00 460.44,515.39 C459.02,515.93 459.02,516.19 460.44,518.21 C462.31,520.89 462.49,527.01 460.75,529.17 C459.44,530.80 458.09,531.48 456.85,531.38 C457.19,531.21 457.58,530.88 458.11,530.40 C459.51,529.13 460.00,527.31 460.00,523.40 C460.00,520.50 459.57,517.85 459.04,517.53 C457.22,516.40 459.23,514.00 462.00,514.00 C465.46,514.00 466.00,515.34 466.00,523.88 C466.00,527.58 466.50,531.10 467.11,531.71 C469.20,533.80 467.06,534.72 460.02,534.76 C454.03,534.80 452.92,534.59 451.30,532.65 ZM 350.46 415.28 C351.32,416.98 352.02,418.70 352.52,420.38 C354.35,426.55 354.36,435.52 352.54,439.50 C351.22,442.37 351.16,442.18 351.07,435.00 C350.95,425.78 349.41,419.17 345.88,413.82 C348.70,417.65 350.80,422.04 351.91,426.75 L 352.80 430.50 L 352.88 425.50 C352.93,422.27 352.03,418.71 350.46,415.28 ZM 411.88 301.75 C412.19,298.92 412.52,294.32 412.70,289.76 C413.01,282.01 412.27,272.46 410.65,262.53 C411.98,269.67 413.47,277.53 413.95,280.00 C415.04,285.54 414.31,295.22 412.41,300.27 C412.21,300.80 412.04,301.30 411.88,301.75 ZM 89.25 490.82 C95.30,487.77 153.97,482.04 211.37,478.88 C153.79,482.05 95.51,487.80 91.50,490.71 C89.70,492.02 90.25,492.12 97.00,491.72 C100.05,491.54 104.18,491.21 108.51,490.83 C105.49,491.23 102.50,491.66 100.00,492.07 C93.68,493.11 87.94,493.97 87.25,493.98 C84.98,494.02 85.95,492.48 89.25,490.82 ZM 413.62 487.28 C392.23,488.87 355.87,491.09 342.50,491.60 C330.87,492.04 329.82,491.94 332.50,490.70 C334.15,489.94 337.10,489.01 339.06,488.65 C341.02,488.28 345.30,486.95 348.56,485.68 C352.98,483.98 354.58,482.84 354.81,481.23 C354.86,480.90 354.88,480.61 354.85,480.34 C355.34,481.65 354.67,483.18 352.75,483.97 C351.51,484.48 347.35,486.26 343.50,487.92 L 336.50 490.94 L 342.50 491.13 C345.80,491.23 349.17,491.28 350.00,491.23 C372.38,489.96 400.63,488.20 413.62,487.28 ZM 473.70 407.00 C473.29,407.00 472.91,407.01 472.56,407.05 C475.23,405.66 475.71,403.79 473.75,402.28 C472.82,401.57 468.14,401.23 463.84,401.28 C464.62,401.23 465.15,401.09 465.23,400.87 C465.96,398.90 470.71,398.99 473.29,401.02 C476.70,403.70 476.93,407.00 473.70,407.00 ZM 298.57 403.32 C300.26,401.91 301.92,400.76 303.41,400.04 C306.35,398.62 309.56,397.63 312.87,397.07 C307.64,398.04 302.76,400.17 298.57,403.32 ZM 323.00 318.57 C318.69,317.80 315.46,317.22 312.72,316.68 C315.46,317.22 318.69,317.79 323.00,318.57 C331.32,320.05 339.21,321.90 345.42,323.81 C342.98,323.19 340.70,322.59 339.00,322.13 C334.88,321.01 327.67,319.40 323.00,318.57 ZM 285.60 435.29 C285.22,431.83 285.24,428.11 285.65,424.71 C285.53,426.25 285.50,428.10 285.50,430.50 C285.50,432.39 285.53,433.95 285.60,435.29 ZM 462.97 401.29 C460.45,401.35 458.17,401.55 456.98,401.89 C458.11,401.29 459.65,400.97 461.47,401.19 C461.99,401.25 462.50,401.28 462.97,401.29 ZM 323.59 396.72 C328.15,397.18 332.59,398.42 336.50,400.42 C333.79,399.19 330.05,397.92 327.18,397.31 C325.98,397.05 324.78,396.86 323.59,396.72 ZM 469.46 411.34 L 469.50 408.52 L 470.55 408.02 C470.04,408.66 469.69,409.70 469.46,411.34 ZM 286.69 419.47 C286.98,418.50 287.31,417.60 287.68,416.78 C288.20,415.67 288.87,414.49 289.66,413.29 C289.17,414.10 288.72,414.94 288.29,415.81 C287.61,417.20 287.09,418.36 286.69,419.47 ZM 455.24 403.55 C454.62,405.10 455.46,406.89 457.50,407.82 C455.07,406.71 454.51,404.98 455.24,403.55 ZM 287.55 477.62 C319.84,477.47 350.03,477.65 352.25,478.27 C349.54,477.66 319.58,477.47 287.55,477.62 ZM 413.66 306.99 L 413.63 306.99 C411.75,307.00 411.12,306.89 411.17,305.91 C411.43,306.72 412.24,306.99 413.66,306.99 ZM 449.81 530.20 C449.23,528.68 449.00,526.77 449.00,523.92 C449.00,520.74 448.55,517.86 448.00,517.50 C448.55,517.86 449.00,520.70 449.00,523.84 C449.00,526.33 449.30,528.62 449.81,530.20 ZM 469.52 442.55 C470.27,448.05 472.14,448.53 476.80,448.80 C472.09,448.53 470.20,448.07 469.52,442.55 ZM 324.58 399.98 C323.69,399.81 322.79,399.67 321.87,399.57 C321.63,399.54 321.40,399.52 321.17,399.50 C317.14,399.20 313.55,400.06 310.69,401.83 C306.29,404.57 303.57,409.50 303.57,415.68 C303.57,409.47 306.28,404.56 310.69,401.83 C313.56,400.04 317.15,399.18 321.17,399.50 C321.44,399.52 321.72,399.55 322.00,399.58 C322.87,399.68 323.73,399.81 324.58,399.98 ZM 455.15 530.68 C454.52,530.19 453.95,529.45 453.47,528.50 C453.66,528.81 453.88,529.11 454.11,529.42 C454.53,529.94 454.86,530.36 455.15,530.68 ZM 476.50 483.47 C498.32,482.28 517.04,481.33 532.85,480.61 C517.04,481.33 498.31,482.28 476.50,483.47 C458.00,484.48 438.84,485.59 427.07,486.34 C438.64,485.60 457.85,484.48 476.50,483.47 ZM 407.91 248.87 C407.73,248.12 407.54,247.36 407.35,246.61 C407.15,245.81 406.98,245.07 406.85,244.41 C406.91,244.64 406.97,244.88 407.03,245.12 C407.24,245.89 407.54,247.21 407.91,248.87 ZM 127.67 488.85 C129.43,488.63 130.62,488.44 131.00,488.32 C131.14,488.28 131.37,488.23 131.66,488.17 C131.48,488.22 131.35,488.26 131.29,488.29 C131.06,488.42 129.68,488.63 127.67,488.85 Z" fill="rgb(77,68,56)"/>
<path d="M 277.51 534.01 C277.10,533.36 277.28,532.32 277.89,531.71 C279.30,530.30 279.40,510.36 278.00,509.50 C275.31,507.84 277.76,507.00 285.28,507.00 C295.24,507.00 298.00,508.40 298.00,513.43 C298.00,515.26 297.31,517.32 296.47,518.02 C295.11,519.15 295.13,519.49 296.63,521.14 C298.68,523.40 300.00,523.53 300.00,521.45 C300.00,520.60 301.10,518.80 302.45,517.45 C305.97,513.94 312.71,514.00 316.08,517.58 C319.69,521.43 319.46,527.86 315.56,531.93 C311.66,536.01 307.68,536.01 302.74,531.93 L 299.02 528.87 L 296.61 531.67 C294.40,534.23 293.50,534.51 286.22,534.84 C280.79,535.09 278.01,534.82 277.51,534.01 ZM 375.92 532.08 C372.38,528.53 372.23,525.48 375.40,521.51 C377.21,519.25 377.67,517.72 377.27,515.28 C376.46,510.31 379.10,507.00 383.87,507.00 C386.43,507.00 388.29,507.66 389.52,509.02 C392.14,511.92 390.12,513.78 386.75,511.57 C385.39,510.68 383.54,510.24 382.64,510.58 C379.81,511.67 380.84,515.12 385.47,520.07 L 389.94 524.85 L 391.82 522.27 C394.51,518.58 396.04,520.00 394.77,525.02 C393.90,528.44 394.02,529.36 395.55,531.05 C396.91,532.56 397.07,533.33 396.20,534.20 C395.33,535.07 394.55,534.90 393.00,533.50 C391.06,531.75 390.77,531.74 387.44,533.33 C382.34,535.76 379.27,535.43 375.92,532.08 ZM 431.94 533.53 C430.53,532.76 428.86,530.98 428.21,529.57 C427.15,527.24 426.07,526.55 425.23,527.53 C425.70,526.49 426.00,525.51 425.99,524.80 C425.99,524.28 425.45,523.56 424.62,522.80 C425.38,523.12 425.89,522.59 427.15,520.99 C431.80,515.08 431.92,515.00 436.54,515.00 C440.10,515.00 441.65,515.56 443.67,517.57 C445.94,519.85 446.18,520.75 445.75,525.27 C444.96,533.51 438.74,537.23 431.94,533.53 ZM 234.92 532.08 C232.54,529.69 232.00,528.31 232.00,524.53 C232.00,518.22 235.13,515.00 241.28,515.00 C247.33,515.00 250.33,518.20 250.33,524.65 C250.33,528.63 249.87,529.73 247.15,532.16 C242.90,535.96 238.78,535.93 234.92,532.08 ZM 325.74 534.31 C323.27,533.66 321.00,528.82 321.00,524.18 C321.00,518.53 323.94,515.19 329.28,514.81 C332.86,514.55 333.55,514.14 333.84,512.11 C334.02,510.80 333.58,509.36 332.85,508.90 C331.02,507.77 333.15,505.69 335.64,506.17 C336.55,506.34 337.03,506.80 337.32,508.86 C336.77,507.34 335.79,507.03 334.13,507.02 C333.14,507.00 333.05,507.35 333.79,508.25 C334.37,508.95 334.80,514.20 334.78,520.12 C334.75,525.97 335.04,531.26 335.42,531.87 C337.11,534.60 337.67,532.27 337.89,521.41 C338.15,527.53 338.62,530.03 339.63,531.15 C340.49,532.10 340.90,533.35 340.54,533.94 C339.69,535.32 336.70,535.30 335.31,533.91 C334.52,533.12 333.65,533.12 332.17,533.91 C330.08,535.03 328.81,535.11 325.74,534.31 ZM 127.67 488.85 C125.84,489.06 123.49,489.28 121.00,489.46 C117.84,489.70 113.13,490.22 108.51,490.83 C104.18,491.21 100.05,491.54 97.00,491.72 C90.25,492.12 89.70,492.02 91.50,490.71 C94.76,488.34 134.01,484.09 179.56,480.88 C174.60,481.31 170.64,481.76 167.50,482.25 L 159.50 483.50 L 165.25 484.01 C168.41,484.29 177.19,484.21 184.75,483.82 C201.90,482.95 233.79,482.40 262.21,482.30 C257.48,482.34 252.57,482.39 247.50,482.46 C198.87,483.17 186.75,483.64 159.30,485.88 C152.04,486.47 142.95,487.15 139.09,487.39 C135.79,487.60 132.75,487.93 131.66,488.17 C131.37,488.23 131.14,488.28 131.00,488.32 C130.62,488.44 129.43,488.63 127.67,488.85 ZM 212.45 533.91 C212.08,533.31 212.28,532.32 212.89,531.71 C214.30,530.30 214.40,510.36 213.00,509.50 C210.01,507.65 212.83,506.95 222.25,507.22 C232.17,507.49 232.51,507.58 232.83,509.87 C233.31,513.21 231.25,515.03 229.57,512.75 C228.66,511.52 226.90,511.00 223.64,511.00 L 219.00 511.00 L 219.00 518.89 L 223.75 519.20 C227.17,519.41 228.50,519.92 228.50,521.00 C228.50,522.08 227.17,522.59 223.75,522.80 L 219.00 523.11 L 219.00 526.85 C219.00,528.91 219.50,531.10 220.11,531.71 C221.87,533.47 220.19,535.00 216.50,535.00 C214.64,535.00 212.82,534.51 212.45,533.91 ZM 374.17 336.20 C384.18,336.12 391.57,335.67 391.83,334.93 C392.02,334.42 393.37,333.99 394.83,333.98 C397.17,333.96 396.97,333.72 393.18,332.00 C390.80,330.92 387.70,329.13 386.29,328.02 C385.79,327.62 385.13,327.22 384.35,326.81 C394.00,330.85 397.60,332.37 401.30,332.73 C403.53,332.95 405.80,332.75 409.45,332.42 L 410.00 332.37 C412.43,332.15 415.09,332.00 417.95,331.90 C417.80,331.92 417.65,331.95 417.50,331.98 C403.51,334.61 403.38,334.91 416.50,334.40 C428.86,333.93 439.76,335.10 441.00,337.04 C441.16,337.29 442.57,337.66 444.81,338.10 C433.69,336.62 426.81,336.55 400.00,336.45 C391.70,336.42 382.61,336.33 374.17,336.20 ZM 312.05 529.95 C313.61,528.39 314.04,526.87 313.80,523.71 C313.55,520.17 313.08,519.39 310.72,518.57 C308.35,517.74 307.57,517.98 305.34,520.20 C304.33,521.22 303.68,522.23 303.41,523.26 L 303.41 523.25 C303.53,516.50 301.60,516.90 301.20,523.71 C300.99,527.34 301.36,529.22 302.52,530.38 C304.63,532.49 305.29,532.44 304.20,530.25 C303.86,529.57 303.58,527.79 303.47,525.78 C303.83,527.03 304.67,528.34 306.00,529.77 C308.57,532.52 309.45,532.55 312.05,529.95 ZM 253.45 533.91 C253.08,533.31 253.28,532.32 253.89,531.71 C255.27,530.33 255.38,518.00 254.00,518.00 C253.45,518.00 253.00,517.39 253.00,516.64 C253.00,515.62 254.79,515.27 260.05,515.23 C266.09,515.20 267.06,515.43 266.79,516.85 C266.62,517.76 265.36,518.64 263.99,518.82 C262.62,519.00 260.94,519.87 260.25,520.76 C258.70,522.77 258.61,530.21 260.11,531.71 C261.78,533.38 260.25,535.00 257.00,535.00 C255.41,535.00 253.82,534.51 253.45,533.91 ZM 439.43 530.43 C442.98,526.87 442.57,521.26 438.56,518.63 C436.35,517.18 436.03,517.25 433.49,519.60 C431.25,521.67 430.88,522.68 431.39,525.31 C431.96,528.26 435.12,532.00 437.04,532.00 C437.49,532.00 438.56,531.29 439.43,530.43 ZM 244.00 530.00 C246.73,527.27 246.77,520.48 244.07,519.04 C237.60,515.58 233.20,523.17 238.07,529.37 C240.56,532.53 241.39,532.61 244.00,530.00 ZM 350.46 415.28 C352.03,418.71 352.93,422.27 352.88,425.50 L 352.80 430.50 L 351.91 426.75 C350.80,422.04 348.70,417.65 345.88,413.82 C344.20,411.29 342.08,409.04 339.46,406.94 C334.95,403.32 330.04,401.02 324.58,399.98 L 324.58 399.98 C323.73,399.81 322.87,399.68 322.00,399.58 C321.72,399.55 321.44,399.52 321.17,399.50 L 321.17 399.50 C320.06,399.42 318.99,399.42 317.95,399.51 C318.08,399.50 318.20,399.48 318.32,399.47 C322.03,399.12 326.17,399.76 330.44,401.54 C332.26,402.30 334.00,402.66 334.32,402.35 C334.63,402.04 336.37,402.77 338.19,403.98 L 341.50 406.17 L 339.01 403.98 C337.64,402.78 334.26,400.63 331.51,399.21 C327.50,397.14 321.90,396.27 316.26,396.64 C318.70,396.45 321.16,396.47 323.59,396.72 L 323.59 396.72 C324.78,396.86 325.98,397.05 327.18,397.31 C330.05,397.92 333.79,399.19 336.50,400.42 C337.12,400.74 337.72,401.07 338.31,401.43 C342.94,404.20 347.58,409.60 350.46,415.28 ZM 332.94 529.58 C333.60,528.78 333.98,526.03 333.81,523.33 C333.53,518.95 333.25,518.47 330.88,518.20 C325.99,517.63 323.23,523.82 326.04,529.07 C327.25,531.33 331.24,531.63 332.94,529.58 ZM 214.50 520.50 C214.50,532.99 214.50,533.00 216.87,533.00 C218.82,533.00 219.03,532.74 218.06,531.57 C217.41,530.78 217.01,528.42 217.19,526.32 C217.46,523.03 217.81,522.53 219.75,522.74 C221.14,522.89 222.00,522.43 222.00,521.56 C222.00,520.78 220.99,520.00 219.75,519.82 C217.76,519.54 217.50,518.92 217.50,514.50 C217.50,509.57 217.55,509.49 221.00,508.88 C224.19,508.32 224.06,508.25 219.50,508.13 L 214.50 508.00 ZM 340.12 485.64 C341.35,487.12 344.26,487.13 348.55,485.69 C345.28,486.95 341.02,488.28 339.06,488.65 C337.10,489.01 334.15,489.94 332.50,490.70 C329.82,491.94 330.87,492.04 342.50,491.60 C347.02,491.43 354.18,491.06 362.49,490.59 C354.95,491.15 349.16,491.68 347.50,491.99 C341.22,493.18 327.20,493.57 324.36,492.64 C322.75,492.11 316.37,493.04 310.95,494.33 C318.09,492.14 327.99,489.33 332.42,488.34 C336.96,487.32 338.11,485.53 334.79,484.65 C333.95,484.43 332.81,484.22 331.38,484.03 C333.87,484.16 335.60,484.22 336.17,484.20 C337.63,484.14 339.41,484.79 340.12,485.64 ZM 421.84 520.75 C420.19,519.75 418.42,519.00 417.30,519.00 C416.16,519.00 414.16,518.14 412.86,517.09 C410.72,515.35 410.61,514.88 411.69,512.01 C412.72,509.29 412.68,509.02 411.44,510.05 C407.71,513.14 411.16,519.56 418.25,522.73 C420.34,523.66 421.00,524.66 421.00,526.88 C421.00,527.54 420.95,528.08 420.83,528.53 C420.90,528.04 420.88,527.43 420.80,526.63 C420.54,523.95 419.92,523.32 416.50,522.23 C405.58,518.75 406.70,506.98 417.94,507.02 C423.53,507.03 424.67,507.74 424.57,511.17 C424.48,514.73 423.07,515.98 422.33,513.16 C421.82,511.20 421.18,510.94 417.62,511.20 C414.25,511.45 413.44,511.90 413.19,513.70 C412.94,515.42 413.81,516.36 417.19,518.06 C418.77,518.86 420.54,519.89 421.84,520.75 ZM 279.46 532.07 C278.39,533.80 290.80,533.11 294.25,531.25 C297.21,529.66 297.45,529.19 296.88,526.00 L 296.26 522.50 L 296.13 525.73 C295.96,530.03 292.60,532.23 286.83,531.81 L 282.50 531.50 L 282.18 527.04 C281.95,523.83 282.31,522.24 283.46,521.40 C284.88,520.37 284.89,520.17 283.53,519.65 C282.47,519.24 282.00,517.67 282.00,514.50 C282.00,510.70 282.38,509.78 284.25,509.03 C286.19,508.25 285.98,508.12 282.69,508.06 C279.89,508.02 279.09,508.33 279.65,509.25 C280.52,510.65 280.35,530.62 279.46,532.07 ZM 293.43 529.07 C296.28,525.93 295.07,523.65 290.10,522.80 C287.69,522.39 285.33,522.30 284.86,522.59 C284.39,522.88 284.00,524.89 284.00,527.06 C284.00,530.96 284.04,531.00 287.85,531.00 C290.37,531.00 292.29,530.34 293.43,529.07 ZM 292.48 517.38 C293.38,516.48 293.97,514.79 293.80,513.63 C293.55,511.85 292.71,511.45 288.75,511.20 L 284.00 510.89 L 284.00 514.28 C284.00,516.14 284.30,517.97 284.67,518.33 C285.93,519.60 290.86,518.99 292.48,517.38 ZM 451.00 532.27 C450.50,531.64 450.11,530.97 449.81,530.20 C449.55,529.39 449.35,528.40 449.21,527.30 C449.46,529.11 449.93,530.37 450.65,531.17 C452.46,533.17 454.55,533.69 453.42,531.86 C452.75,530.79 452.44,529.19 452.26,525.10 C452.49,526.47 452.87,527.53 453.47,528.50 C453.95,529.45 454.52,530.19 455.15,530.68 C455.85,531.46 456.28,531.66 456.85,531.38 C458.09,531.48 459.44,530.80 460.75,529.17 C461.24,528.57 461.57,527.65 461.76,526.59 C461.67,529.96 461.93,532.18 462.47,532.41 C463.04,532.65 463.73,532.88 464.00,532.92 C464.27,532.97 464.35,529.18 464.18,524.50 C463.87,516.53 463.72,516.00 461.68,516.02 C460.06,516.03 459.85,516.25 460.87,516.90 C461.77,517.47 462.07,519.16 461.92,523.23 C461.78,521.31 461.28,519.42 460.44,518.21 C459.02,516.19 459.02,515.93 460.44,515.39 C464.06,514.00 465.00,515.66 465.00,523.41 C465.00,527.52 465.45,531.16 466.00,531.50 C468.36,532.96 466.53,533.59 459.51,533.73 C454.17,533.83 452.46,533.70 451.30,532.65 C451.20,532.53 451.10,532.40 451.00,532.27 ZM 385.07 530.96 C387.73,529.54 387.49,527.84 384.20,524.69 C380.68,521.32 379.27,521.30 377.76,524.62 C376.69,526.97 376.85,527.48 379.34,529.62 C381.14,531.17 381.91,531.84 382.71,531.87 C383.32,531.90 383.93,531.57 385.02,530.99 ZM 392.67 531.87 C395.34,533.43 395.53,533.24 393.54,531.04 C392.33,529.70 391.95,528.19 392.34,526.29 C392.66,524.76 392.68,524.06 392.38,524.75 C391.26,527.33 388.01,525.84 383.68,520.75 C381.21,517.86 378.98,514.60 378.73,513.50 C378.47,512.40 378.43,513.18 378.64,515.24 C378.93,518.14 380.04,519.92 383.59,523.19 C386.92,526.26 388.04,527.98 387.74,529.56 C387.42,531.23 387.73,531.62 389.08,531.27 C390.05,531.02 391.66,531.29 392.67,531.87 ZM 348.00 539.82 C348.00,539.17 348.54,537.16 349.19,535.34 C350.26,532.39 350.08,531.37 347.48,525.77 C346.49,523.63 345.39,521.46 344.53,519.91 C347.06,524.42 350.97,532.90 350.98,534.32 C351.00,535.86 351.21,535.93 352.37,534.77 C353.12,534.02 354.07,532.30 354.47,530.95 C354.96,529.29 356.19,526.45 357.47,523.79 C356.04,526.93 354.62,530.55 353.99,533.00 C352.84,537.40 350.53,541.00 348.85,541.00 C348.38,541.00 348.00,540.47 348.00,539.82 ZM 313.00 531.22 C313.00,531.82 314.03,531.23 315.29,529.91 C317.14,527.96 317.44,526.86 316.88,524.17 C315.81,519.10 315.00,519.15 315.00,524.27 C315.00,526.81 314.55,529.16 314.00,529.50 C313.45,529.84 313.00,530.61 313.00,531.22 ZM 246.87 524.25 C246.67,527.41 246.82,530.00 247.20,530.00 C248.46,530.00 249.15,523.58 248.18,521.00 C247.38,518.87 247.19,519.34 246.87,524.25 ZM 256.03 521.45 C256.06,524.08 256.21,524.25 257.12,522.68 C258.55,520.23 257.38,516.00 255.28,516.00 C253.97,516.00 253.87,516.27 254.80,517.20 C255.46,517.86 256.01,519.77 256.03,521.45 ZM 255.72 530.96 C255.31,532.52 255.67,533.00 257.22,533.00 C258.99,533.00 259.08,532.78 257.91,531.25 C257.17,530.29 256.50,529.37 256.41,529.21 C256.32,529.05 256.01,529.84 255.72,530.96 ZM 508.64 330.49 C510.26,329.94 512.05,329.26 513.75,328.55 C511.94,329.31 510.02,330.04 508.27,330.64 C501.75,332.85 499.88,333.22 485.50,333.35 C499.42,332.98 502.48,332.55 508.64,330.49 ZM 200.42 479.51 C204.06,479.29 207.72,479.08 211.37,478.88 L 211.50 478.87 C215.29,478.66 221.21,478.47 228.52,478.31 C217.62,478.71 208.33,479.10 200.42,479.51 ZM 366.92 321.67 C366.28,321.58 365.64,321.49 365.03,321.42 C362.07,321.09 357.19,319.87 352.63,318.48 C356.87,319.70 361.68,320.83 365.86,321.49 C366.21,321.55 366.56,321.61 366.92,321.67 ZM 530.10 328.43 C530.12,328.41 530.14,328.39 530.16,328.36 C535.67,322.55 536.80,316.60 533.23,308.21 C534.00,309.95 534.55,311.51 534.85,312.83 C536.19,318.79 534.61,323.99 530.10,328.43 ZM 424.54 528.88 C424.52,528.93 424.51,528.98 424.49,529.03 C424.07,530.36 423.23,531.43 422.03,532.23 C422.89,531.42 423.81,530.17 424.54,528.88 ZM 439.93 332.13 C443.32,332.29 446.81,332.49 450.38,332.75 C446.63,332.58 443.23,332.39 440.50,332.17 C440.31,332.16 440.12,332.14 439.93,332.13 ZM 512.81 337.91 C518.15,336.04 522.94,333.80 526.46,331.42 C522.95,333.85 518.40,336.02 512.81,337.91 ZM 298.57 403.32 C299.19,402.86 299.82,402.42 300.46,402.00 C298.61,403.32 296.79,404.86 295.12,406.55 C296.25,405.38 297.41,404.29 298.57,403.32 ZM 303.38 496.83 C302.09,497.59 301.29,498.54 301.54,499.06 C301.26,498.50 301.87,497.60 302.94,497.03 C303.04,496.98 303.19,496.91 303.38,496.83 ZM 468.64 341.57 C472.04,341.97 475.32,342.31 478.15,342.57 C475.30,342.35 472.17,342.02 468.64,341.57 ZM 289.66 413.29 C290.01,412.75 290.39,412.21 290.79,411.67 C289.82,413.03 288.97,414.43 288.29,415.81 C288.72,414.94 289.17,414.10 289.66,413.29 ZM 409.23 528.98 C409.36,528.38 409.61,528.00 409.93,528.00 C409.95,528.00 409.96,528.00 409.98,528.00 C409.65,528.02 409.40,528.41 409.23,528.98 ZM 449.01 524.69 C449.00,524.41 449.00,524.13 449.00,523.84 C449.00,520.70 448.55,517.86 448.00,517.50 C448.55,517.86 449.00,520.65 449.00,523.73 C449.00,524.06 449.00,524.38 449.01,524.69 ZM 343.61 518.37 C343.48,518.18 343.38,518.03 343.29,517.92 C343.11,517.70 342.96,517.50 342.84,517.30 C342.88,517.36 342.93,517.41 342.97,517.47 C343.15,517.68 343.37,517.99 343.61,518.37 ZM 341.73 314.13 C341.72,314.12 341.71,314.11 341.71,314.11 C341.19,313.59 341.42,313.07 342.34,312.55 C341.43,313.07 341.21,313.60 341.73,314.13 ZM 406.91 239.69 C407.33,239.27 409.72,239.01 412.81,238.90 C409.74,239.01 407.36,239.28 406.91,239.69 ZM 343.14 515.45 C343.74,515.15 344.79,515.00 346.28,515.00 C344.82,515.00 343.77,515.15 343.14,515.45 ZM 301.57 499.11 C301.81,499.48 303.04,499.69 306.19,499.71 C303.03,499.69 301.80,499.48 301.57,499.11 Z" fill="rgb(147,137,122)"/>
<path d="M 222.00 347.98 C214.32,346.65 206.55,343.17 202.95,339.44 C199.75,336.14 199.50,335.43 199.56,329.69 C199.60,324.77 200.27,322.23 202.81,317.28 C204.56,313.86 206.00,310.21 206.00,309.18 C206.00,308.14 204.66,302.17 203.03,295.90 C199.74,283.26 197.02,262.79 197.01,250.47 C196.97,219.41 206.93,186.24 224.77,158.00 C234.37,142.80 257.24,119.85 261.32,121.30 C261.97,121.53 258.30,125.71 253.16,130.58 C237.13,145.76 226.32,160.30 216.52,179.85 C205.25,202.34 199.01,232.08 200.43,256.64 C201.20,269.98 205.18,295.09 207.34,300.28 C210.59,308.04 215.27,302.75 213.17,293.69 C209.23,276.72 207.62,242.42 210.03,227.00 C212.57,210.79 218.38,191.87 224.53,179.80 C233.24,162.71 244.73,147.74 258.32,135.34 C241.95,150.66 227.65,170.35 224.09,183.90 C223.03,187.93 221.68,191.72 221.08,192.32 C220.49,192.91 220.00,194.83 220.00,196.58 C220.00,198.33 219.32,200.32 218.50,201.00 C217.54,201.80 217.00,204.01 217.00,207.19 C217.00,209.91 216.47,213.11 215.82,214.32 C214.40,216.93 214.02,221.89 215.17,222.61 C215.63,222.89 216.00,222.52 216.00,221.78 C216.00,221.05 217.39,218.92 219.09,217.06 C222.13,213.74 222.31,213.68 230.23,213.76 C233.52,213.80 235.98,213.99 237.46,214.34 L 236.00 217.50 C234.98,219.70 234.11,222.15 234.07,222.94 C234.02,223.93 234.63,223.71 236.00,222.23 C237.21,220.93 237.97,218.78 237.93,216.79 L 237.87 214.44 C238.50,214.62 238.89,214.83 239.04,215.07 C239.46,215.74 239.77,213.64 239.73,210.40 C239.68,207.15 239.73,201.46 239.83,197.75 C239.99,191.24 240.09,191.00 242.53,191.00 C243.92,191.00 245.32,191.67 245.64,192.49 C245.95,193.32 246.58,193.76 247.02,193.49 C247.47,193.21 248.44,193.55 249.17,194.26 C252.70,197.63 258.76,201.77 261.00,202.33 C262.38,202.67 264.98,204.35 266.78,206.06 L 269.82 208.93 C263.25,206.95 259.53,204.70 252.58,199.23 C248.21,195.78 244.14,193.13 243.56,193.33 C241.94,193.90 242.54,207.39 244.53,214.91 C247.40,225.80 252.57,234.65 260.96,243.05 C272.79,254.89 277.01,256.11 287.84,250.84 C291.41,249.10 297.74,246.27 301.92,244.55 C309.50,241.43 309.50,241.42 311.28,235.96 C314.57,225.90 314.59,222.69 311.41,216.41 C310.18,213.98 308.74,211.75 307.81,210.75 C308.21,211.01 308.47,211.33 308.73,211.72 C309.47,212.83 311.85,215.71 314.02,218.12 C316.19,220.53 317.98,223.50 317.99,224.73 C318.00,226.67 318.53,226.38 322.16,222.44 C324.53,219.87 327.05,218.05 328.01,218.21 C328.93,218.37 330.32,217.99 331.10,217.37 C331.46,217.07 332.53,216.54 333.97,215.91 C330.89,217.41 328.77,219.21 324.97,222.99 C316.22,231.71 314.48,236.79 314.55,253.50 C314.60,264.59 314.85,266.10 317.80,273.50 C321.43,282.60 328.46,292.48 336.59,299.91 L 342.16 305.00 L 351.98 304.92 C361.39,304.84 370.56,305.89 383.50,308.52 C386.80,309.19 391.81,309.80 394.64,309.87 C399.00,309.98 400.25,309.57 402.80,307.19 C406.84,303.42 409.00,295.73 409.00,285.16 C409.00,275.23 405.81,257.40 402.28,247.59 C400.15,241.69 393.62,229.73 390.05,224.84 C391.19,226.03 392.32,227.00 392.74,227.00 C393.20,227.00 395.12,229.59 397.01,232.75 C402.34,241.66 404.47,242.06 403.40,233.93 C402.96,230.66 403.11,229.00 403.82,229.00 C404.53,229.00 404.70,227.30 404.32,224.07 C403.84,219.97 404.10,218.68 405.93,216.36 C407.63,214.20 409.75,212.75 412.54,211.91 C412.02,212.09 411.58,212.31 411.24,212.55 C408.58,214.41 404.71,226.29 405.18,231.16 L 405.50 234.50 L 415.86 235.19 C427.68,235.97 436.82,238.50 445.50,243.39 C448.80,245.25 452.17,246.82 452.99,246.88 C453.81,246.95 456.78,245.42 459.58,243.49 C465.19,239.62 469.09,234.68 473.28,226.04 C471.77,229.38 470.10,232.37 468.37,234.68 C467.07,236.43 466.00,238.53 466.00,239.34 C466.00,240.16 464.54,241.99 462.75,243.42 C455.34,249.33 454.27,251.44 458.27,252.20 C459.80,252.49 461.51,251.71 463.52,249.80 C467.65,245.87 476.18,241.67 477.08,243.13 C477.46,243.75 478.23,243.98 478.78,243.64 C479.08,243.45 481.34,243.03 484.40,242.53 C479.80,243.39 476.63,244.42 473.46,245.97 C466.13,249.55 462.14,253.42 463.53,255.60 C465.10,258.03 486.24,268.91 488.98,268.70 C490.78,268.55 492.47,266.97 495.14,262.93 C499.86,255.77 506.00,243.74 506.00,241.63 C506.00,239.81 505.50,239.65 494.31,241.09 C498.82,240.48 502.90,240.01 504.23,240.01 C507.32,239.99 507.50,244.59 504.62,250.14 C503.18,252.91 502.00,256.04 502.00,257.09 C502.00,259.62 504.62,259.55 505.29,257.00 C505.98,254.34 509.00,255.45 509.01,258.36 C509.01,259.54 509.48,262.19 510.05,264.25 C511.09,267.99 513.00,269.41 513.00,266.44 C513.00,265.58 513.40,265.13 513.89,265.43 C515.54,266.45 515.88,261.62 515.46,243.47 C515.15,230.09 513.88,218.79 511.36,208.22 C511.58,208.97 511.81,209.73 512.04,210.50 C513.05,213.91 515.63,228.84 517.13,240.00 C518.45,249.78 517.74,265.49 515.53,275.35 C513.68,283.59 514.32,288.00 517.36,288.00 C519.89,288.00 520.79,285.63 522.40,274.72 C527.01,243.61 522.33,210.05 509.51,182.31 C504.98,172.50 504.82,169.90 509.01,173.80 C512.87,177.39 520.19,196.40 523.53,211.50 C526.55,225.15 528.25,243.34 527.64,255.50 C527.11,266.01 524.96,283.32 523.42,289.47 C523.10,290.75 523.85,292.89 525.38,295.03 C528.80,299.80 531.54,304.43 533.23,308.21 C536.80,316.60 535.67,322.55 530.16,328.36 C530.14,328.39 530.12,328.41 530.10,328.43 C529.05,329.47 527.83,330.46 526.46,331.42 C522.94,333.80 518.15,336.04 512.81,337.91 C509.98,338.87 506.87,339.75 503.50,340.57 C494.94,342.65 488.33,343.34 478.15,342.57 C475.32,342.31 472.05,341.97 468.64,341.57 L 468.64 341.57 C464.98,341.10 460.90,340.51 456.25,339.79 C451.68,339.08 448.06,338.53 444.81,338.10 C442.57,337.66 441.16,337.29 441.00,337.04 C439.76,335.10 428.86,333.93 416.50,334.40 C403.38,334.91 403.51,334.61 417.50,331.98 C417.65,331.95 417.80,331.92 417.95,331.90 C424.39,331.68 431.85,331.76 439.93,332.13 C440.12,332.14 440.31,332.16 440.50,332.17 C443.23,332.39 446.63,332.58 450.38,332.75 C451.25,332.82 452.12,332.88 453.00,332.95 C459.33,333.45 472.77,333.65 482.87,333.41 C483.79,333.39 484.67,333.37 485.50,333.35 C499.88,333.22 501.75,332.85 508.27,330.64 C510.02,330.04 511.94,329.31 513.75,328.55 C516.31,327.48 518.67,326.34 519.96,325.52 C524.54,322.63 529.00,315.62 529.00,311.31 C529.00,303.33 511.29,287.03 489.50,274.97 C486.20,273.15 477.99,268.59 471.25,264.85 C464.51,261.10 455.16,254.94 450.47,251.14 C442.37,244.59 435.54,241.16 427.50,239.59 C424.21,238.95 417.65,238.73 412.80,238.90 C409.71,239.01 407.33,239.27 406.91,239.69 C406.91,239.69 406.91,239.69 406.90,239.70 L 406.90 239.70 C406.23,240.37 406.21,241.82 406.85,244.41 C406.98,245.07 407.15,245.81 407.35,246.61 C407.54,247.36 407.73,248.12 407.91,248.87 C408.69,252.44 409.73,257.63 410.64,262.50 L 410.65 262.53 C412.27,272.46 413.01,282.01 412.70,289.76 C412.52,294.32 412.19,298.92 411.88,301.75 C411.17,303.82 410.91,305.12 411.17,305.91 C411.12,306.89 411.75,307.00 413.63,306.99 L 413.65 306.99 L 413.66 306.99 C413.69,306.99 413.72,306.99 413.75,306.99 C415.84,306.99 421.06,305.48 427.31,303.21 C432.84,301.20 439.18,298.60 444.92,295.89 L 444.93 295.89 C458.75,289.37 463.75,288.00 473.72,288.00 C482.55,288.00 490.00,290.49 490.00,293.44 C490.00,295.39 488.33,295.74 483.06,294.89 C480.55,294.48 476.70,294.38 474.50,294.66 C470.77,295.14 468.83,295.63 457.00,299.06 C454.52,299.78 449.35,301.92 445.50,303.82 C433.13,309.93 426.62,311.87 412.82,313.57 C398.62,315.32 390.13,315.04 383.22,312.59 C375.66,309.90 362.81,308.70 354.17,309.86 C348.00,310.69 344.01,311.60 342.34,312.55 C341.42,313.07 341.19,313.59 341.71,314.11 C341.71,314.11 341.72,314.12 341.73,314.13 C341.73,314.13 341.74,314.14 341.74,314.14 C342.85,315.25 347.28,316.94 352.63,318.48 C357.19,319.87 362.07,321.09 365.03,321.42 C365.64,321.49 366.28,321.58 366.92,321.67 C372.36,322.64 379.00,324.57 383.86,326.60 L 384.35 326.81 C385.13,327.22 385.79,327.62 386.29,328.02 C387.70,329.13 390.80,330.92 393.18,332.00 C396.97,333.72 397.17,333.96 394.83,333.98 C393.37,333.99 392.02,334.42 391.83,334.93 C391.57,335.67 384.18,336.12 374.17,336.20 C362.76,336.03 352.53,335.79 347.00,335.54 L 329.50 334.77 L 313.63 338.90 C285.35,346.26 265.59,349.03 242.50,348.87 C233.70,348.81 224.48,348.41 222.00,347.98 ZM 275.50 337.05 C291.52,334.43 309.28,332.00 312.35,332.00 C312.69,332.00 313.03,331.96 313.35,331.90 C320.44,331.50 328.46,331.50 342.37,331.50 L 342.37 331.50 L 343.92 331.50 C368.90,331.50 377.43,331.20 377.73,330.31 C378.18,328.95 375.85,328.47 361.78,327.01 C359.18,326.74 356.36,326.34 353.87,325.91 C351.25,325.28 348.23,324.53 345.42,323.81 C339.21,321.90 331.32,320.05 323.00,318.57 C318.69,317.79 315.46,317.22 312.72,316.68 C304.48,315.08 300.56,313.85 284.50,308.85 C267.50,303.55 260.13,302.65 247.75,304.35 C243.08,304.99 242.00,304.88 242.00,303.73 C242.00,299.70 254.05,294.99 264.34,295.01 C271.42,295.02 285.26,298.07 302.49,303.40 C316.87,307.85 333.89,310.17 336.46,308.03 C337.93,306.82 337.22,305.82 329.79,298.59 C318.00,287.11 313.55,277.98 310.12,258.19 L 308.44 248.50 L 305.48 248.83 C303.85,249.00 298.98,251.14 294.65,253.58 C290.32,256.01 286.61,258.00 286.40,258.00 C285.29,258.00 271.42,267.57 264.25,273.28 C259.49,277.07 253.57,280.77 250.27,282.00 C239.42,286.06 227.48,292.92 221.73,298.41 C213.78,305.99 206.00,318.34 206.00,323.38 C206.00,330.09 214.41,335.95 227.00,338.00 C236.74,339.59 263.12,339.07 275.50,337.05 ZM 301.57 499.11 C301.56,499.09 301.55,499.08 301.54,499.06 C301.29,498.54 302.09,497.59 303.38,496.83 C304.58,496.34 307.43,495.41 310.95,494.33 C316.37,493.04 322.75,492.11 324.36,492.64 C327.20,493.57 341.22,493.18 347.50,491.99 C349.16,491.68 354.95,491.15 362.49,490.59 C378.75,489.66 399.47,488.34 413.62,487.28 C415.38,487.16 416.85,487.05 418.00,486.96 C419.81,486.81 422.95,486.60 427.07,486.34 C438.84,485.59 458.00,484.48 476.50,483.47 C498.31,482.28 517.04,481.33 532.85,480.61 C580.26,478.45 601.38,478.37 600.75,480.25 C600.52,480.94 595.80,483.84 590.25,486.70 L 580.16 491.91 L 513.33 492.37 C449.83,492.80 409.78,494.07 353.00,497.44 C325.66,499.06 312.31,499.74 306.19,499.71 C303.04,499.69 301.81,499.48 301.57,499.11 ZM 311.34 464.01 C301.95,462.03 292.82,454.42 287.95,444.50 C286.77,442.08 285.98,438.81 285.60,435.29 C285.53,433.95 285.50,432.39 285.50,430.50 C285.50,428.10 285.53,426.25 285.65,424.71 C285.88,422.84 286.23,421.06 286.69,419.47 C287.09,418.36 287.61,417.20 288.29,415.81 C288.97,414.43 289.82,413.03 290.79,411.67 C292.07,409.91 293.56,408.16 295.12,406.55 C296.79,404.86 298.61,403.32 300.46,402.00 C304.20,399.57 308.40,397.90 312.87,397.07 C313.99,396.88 315.12,396.74 316.26,396.64 L 316.26 396.64 C321.90,396.27 327.50,397.14 331.51,399.21 C334.26,400.63 337.64,402.78 339.01,403.98 L 341.50 406.17 L 338.19 403.98 C336.37,402.77 334.63,402.04 334.32,402.35 C334.00,402.66 332.26,402.30 330.44,401.54 C326.17,399.76 322.03,399.12 318.32,399.47 C318.20,399.48 318.08,399.50 317.95,399.51 C315.22,399.74 312.77,400.55 310.69,401.83 L 310.69 401.83 C306.29,404.58 303.57,409.49 303.57,415.68 L 303.57 415.68 C303.57,424.61 310.22,431.00 319.50,431.00 C332.19,431.00 339.74,443.71 334.01,455.43 C330.28,463.09 321.94,466.24 311.34,464.01 ZM 386.42 456.63 C381.31,454.32 376.12,449.10 375.03,445.17 C374.47,443.15 374.01,434.67 374.01,426.32 C374.00,417.96 373.58,410.03 373.07,408.69 C372.55,407.31 370.80,405.78 369.07,405.17 C367.38,404.59 366.00,403.61 366.00,403.00 C366.00,401.37 372.34,399.01 374.92,399.69 C376.14,400.01 378.89,399.70 381.03,398.99 C384.39,397.88 385.25,397.93 387.45,399.38 C390.65,401.47 390.68,402.79 387.57,403.97 C384.16,405.27 383.47,411.14 384.63,428.86 L 385.57 443.22 L 388.80 446.11 C392.43,449.36 396.37,449.83 399.78,447.44 C404.30,444.27 405.00,441.18 405.00,424.24 C405.00,407.28 404.53,405.41 400.08,404.82 C396.53,404.35 396.44,402.34 399.88,400.56 C402.11,399.41 403.55,399.26 405.45,399.98 C407.36,400.71 408.89,400.54 411.40,399.34 C415.58,397.35 419.40,398.15 421.57,401.47 C423.52,404.45 422.66,406.20 419.61,405.44 C415.69,404.45 415.16,406.58 414.82,424.52 C414.52,440.40 414.33,441.86 411.88,447.09 C408.28,454.77 404.40,457.38 396.02,457.74 C392.00,457.92 388.32,457.49 386.42,456.63 ZM 250.67 455.80 C245.00,453.16 243.52,452.82 241.94,453.81 C238.89,455.71 238.00,455.23 238.00,451.65 C238.00,449.58 238.76,447.62 240.00,446.50 C241.10,445.50 242.00,443.67 242.00,442.42 C242.00,440.13 244.35,437.00 246.07,437.00 C246.58,437.00 247.00,437.93 247.00,439.07 C247.00,442.22 248.63,444.61 252.36,446.91 C262.46,453.16 272.75,443.75 264.92,435.42 C263.80,434.22 259.64,432.26 255.69,431.07 C245.52,428.01 242.33,426.44 240.46,423.58 C235.90,416.63 238.74,405.70 246.07,401.97 C251.15,399.37 258.88,399.39 264.00,402.00 C268.28,404.18 271.53,404.56 272.50,403.00 C272.84,402.45 273.82,402.00 274.68,402.00 C275.91,402.00 276.11,402.69 275.61,405.22 C275.25,406.99 274.29,408.82 273.47,409.28 C272.65,409.73 271.33,411.66 270.54,413.56 C268.88,417.53 266.00,418.23 266.00,414.65 C266.00,411.38 263.28,409.29 257.98,408.51 C254.24,407.96 253.00,408.21 250.73,409.99 C247.36,412.65 247.15,416.40 250.25,418.42 C251.49,419.22 256.02,421.23 260.33,422.88 C269.84,426.53 274.54,429.96 276.51,434.68 C280.52,444.27 275.58,454.29 265.10,457.85 C260.05,459.56 258.17,459.29 250.67,455.80 ZM 250.88 277.81 C257.62,273.72 269.00,263.76 269.00,261.93 C269.00,260.94 268.08,259.84 266.95,259.49 C265.83,259.13 262.34,256.70 259.19,254.08 C255.49,251.00 253.43,249.24 251.04,248.29 C247.89,247.04 244.18,247.21 235.35,247.61 L 234.55 247.65 C222.05,248.22 220.00,248.54 220.00,249.94 C220.00,253.00 229.45,267.50 235.52,273.75 C242.38,280.82 244.84,281.47 250.88,277.81 ZM 340.12 485.64 C339.41,484.79 337.63,484.14 336.17,484.20 C335.60,484.22 333.87,484.16 331.38,484.03 C321.14,482.64 296.22,482.02 262.21,482.30 C233.79,482.40 201.90,482.95 184.75,483.82 C177.19,484.21 168.41,484.29 165.25,484.01 L 159.50 483.50 L 167.50 482.25 C170.64,481.76 174.60,481.31 179.56,480.88 C186.41,480.39 193.39,479.94 200.42,479.51 C208.33,479.10 217.62,478.71 228.52,478.31 C244.24,477.96 266.38,477.72 287.60,477.62 C319.62,477.47 349.55,477.66 352.25,478.27 C353.64,478.66 354.52,479.45 354.85,480.34 C354.88,480.61 354.86,480.90 354.81,481.23 C354.58,482.84 352.98,483.98 348.56,485.68 L 348.55 485.69 C344.26,487.13 341.35,487.12 340.12,485.64 ZM 493.58 457.25 C492.92,456.60 487.90,456.40 462.34,456.01 C456.34,455.92 453.50,453.82 456.45,451.66 C459.05,449.76 459.91,443.30 459.96,425.23 L 460.00 408.96 L 457.50 407.82 C455.07,406.71 454.51,404.98 455.24,403.55 C455.57,402.90 456.17,402.32 456.98,401.89 C458.17,401.55 460.45,401.35 462.97,401.29 C463.28,401.30 463.57,401.29 463.84,401.28 C468.14,401.23 472.82,401.57 473.75,402.28 C475.71,403.79 475.23,405.66 472.56,407.05 C471.70,407.15 471.05,407.40 470.55,408.02 L 469.50 408.52 L 469.46 411.34 C469.06,414.17 469.01,418.83 469.01,426.45 C469.02,434.25 469.07,439.29 469.52,442.55 C470.20,448.07 472.09,448.53 476.80,448.80 C481.43,449.07 482.38,448.77 484.86,446.29 C486.41,444.75 487.90,442.81 488.17,441.99 C488.92,439.78 492.00,442.58 492.00,445.47 C492.00,446.69 492.90,448.50 494.00,449.50 C495.24,450.62 496.00,452.58 496.00,454.65 C496.00,457.89 495.15,458.80 493.58,457.25 ZM 313.40 421.49 C309.89,417.98 310.30,411.59 314.23,408.67 C320.33,404.13 329.87,411.08 327.01,417.98 C324.49,424.05 317.71,425.80 313.40,421.49 ZM 325.07 453.00 C328.20,448.57 328.28,446.48 325.44,443.11 C323.38,440.67 322.03,440.00 319.13,440.00 C313.45,440.00 311.00,442.26 311.00,447.48 C311.00,451.04 311.50,452.25 313.70,453.98 C317.35,456.85 322.67,456.39 325.07,453.00 ZM 361.13 517.42 C360.43,517.85 358.94,520.57 357.47,523.79 C356.19,526.45 354.96,529.29 354.47,530.95 C354.07,532.30 353.12,534.02 352.37,534.77 C351.21,535.93 351.00,535.86 350.98,534.32 C350.97,532.90 347.06,524.42 344.53,519.91 C344.17,519.28 343.86,518.75 343.61,518.37 C343.37,517.99 343.15,517.68 342.97,517.47 C342.93,517.41 342.88,517.36 342.84,517.30 C342.31,516.43 342.40,515.82 343.14,515.45 C343.77,515.15 344.82,515.00 346.28,515.00 C348.77,515.00 349.15,515.32 348.69,517.06 C348.13,519.23 350.27,525.43 351.94,526.46 C353.53,527.44 356.26,521.05 355.62,517.86 C355.08,515.15 355.23,515.00 358.52,515.00 C361.79,515.00 363.09,516.21 361.13,517.42 ZM 385.60 293.72 C384.22,291.91 382.80,288.58 382.44,286.32 C381.79,282.29 381.86,282.17 386.18,279.63 C388.60,278.21 391.59,275.69 392.82,274.03 C395.10,270.94 399.99,269.73 400.01,272.25 C400.01,272.94 396.82,276.48 392.92,280.12 L 385.83 286.74 L 387.91 290.83 C391.41,297.69 389.98,299.47 385.60,293.72 ZM 421.84 520.75 C422.48,521.18 423.01,521.56 423.35,521.86 C423.88,522.33 424.28,522.65 424.62,522.80 C425.45,523.56 425.99,524.28 425.99,524.80 C426.00,525.51 425.70,526.49 425.23,527.53 C424.98,527.83 424.74,528.28 424.54,528.88 C423.81,530.17 422.89,531.42 422.03,532.23 C420.21,533.45 417.56,534.01 414.34,533.81 C409.89,533.53 409.47,533.28 409.18,530.75 C409.11,530.08 409.13,529.46 409.23,528.98 C409.40,528.41 409.65,528.02 409.98,528.00 C410.54,528.02 411.00,528.39 411.00,528.85 C411.00,529.87 412.56,530.70 414.43,530.99 L 414.44 530.99 L 414.44 530.99 C415.70,531.19 417.10,531.14 418.25,530.76 C418.27,530.75 418.29,530.75 418.30,530.74 C419.97,530.16 420.66,529.68 420.83,528.53 C420.95,528.08 421.00,527.54 421.00,526.88 C421.00,524.66 420.34,523.66 418.25,522.73 C411.16,519.56 407.71,513.14 411.44,510.05 C412.68,509.02 412.72,509.29 411.69,512.01 C410.61,514.88 410.72,515.35 412.86,517.09 C414.16,518.14 416.16,519.00 417.30,519.00 C418.42,519.00 420.19,519.75 421.84,520.75 ZM 472.56 531.75 C473.51,529.07 473.43,511.25 472.46,508.75 C471.95,507.42 472.30,507.00 473.92,507.00 C475.10,507.00 476.25,507.56 476.48,508.25 C476.70,508.94 477.03,515.01 477.19,521.75 L 477.50 534.00 L 474.63 534.00 C472.09,534.00 471.86,533.75 472.56,531.75 ZM 214.50 520.50 L 214.50 508.00 L 219.50 508.13 C224.06,508.25 224.19,508.32 221.00,508.88 C217.55,509.49 217.50,509.57 217.50,514.50 C217.50,518.92 217.76,519.54 219.75,519.82 C220.99,520.00 222.00,520.78 222.00,521.56 C222.00,522.43 221.14,522.89 219.75,522.74 C217.81,522.53 217.46,523.03 217.19,526.32 C217.01,528.42 217.41,530.78 218.06,531.57 C219.03,532.74 218.82,533.00 216.87,533.00 C214.50,533.00 214.50,532.99 214.50,520.50 ZM 279.46 532.07 C280.35,530.62 280.52,510.65 279.65,509.25 C279.09,508.33 279.89,508.02 282.69,508.06 C285.98,508.12 286.19,508.25 284.25,509.03 C282.38,509.78 282.00,510.70 282.00,514.50 C282.00,517.67 282.47,519.24 283.53,519.65 C284.89,520.17 284.88,520.37 283.46,521.40 C282.31,522.24 281.95,523.83 282.18,527.04 L 282.50 531.50 L 286.83 531.81 C292.60,532.23 295.96,530.03 296.13,525.73 L 296.26 522.50 L 296.88 526.00 C297.45,529.19 297.21,529.66 294.25,531.25 C290.80,533.11 278.39,533.80 279.46,532.07 ZM 337.78 517.97 C337.82,519.23 337.85,520.37 337.89,521.41 C337.67,532.27 337.11,534.60 335.42,531.87 C335.04,531.26 334.75,525.97 334.78,520.12 C334.80,514.20 334.37,508.95 333.79,508.25 C333.05,507.35 333.14,507.00 334.13,507.02 C335.79,507.03 336.77,507.34 337.32,508.86 C337.56,510.56 337.67,513.35 337.78,517.97 ZM 449.01 524.69 C449.00,524.38 449.00,524.06 449.00,523.73 C449.00,520.65 448.55,517.85 448.00,517.50 L 448.00 517.50 L 448.00 517.50 C446.16,516.36 446.97,515.00 449.50,515.00 C451.88,515.00 452.00,515.28 452.00,520.87 C452.00,522.59 452.08,523.95 452.26,525.10 C452.44,529.19 452.75,530.79 453.42,531.86 C454.55,533.69 452.46,533.17 450.65,531.17 C449.93,530.37 449.46,529.11 449.21,527.30 C449.10,526.48 449.04,525.61 449.01,524.69 ZM 392.67 531.87 C391.66,531.29 390.05,531.02 389.08,531.27 C387.73,531.62 387.42,531.23 387.74,529.56 C388.04,527.98 386.92,526.26 383.59,523.19 C380.04,519.92 378.93,518.14 378.64,515.24 C378.43,513.18 378.47,512.40 378.73,513.50 C378.98,514.60 381.21,517.86 383.68,520.75 C388.01,525.84 391.26,527.33 392.38,524.75 C392.68,524.06 392.66,524.76 392.34,526.29 C391.95,528.19 392.33,529.70 393.54,531.04 C395.53,533.24 395.34,533.43 392.67,531.87 ZM 306.01 210.13 C303.89,210.11 299.35,210.44 294.49,211.00 C284.32,212.17 282.49,212.13 275.86,210.53 C273.91,210.06 272.19,209.62 270.64,209.17 L 288.73 209.43 C298.96,209.57 303.64,209.68 306.01,210.13 ZM 393.89 88.59 C393.16,88.58 392.70,88.68 392.55,88.92 C391.51,90.60 394.09,91.99 401.02,93.50 C403.88,94.13 406.71,94.80 408.44,95.25 C404.80,94.34 395.91,92.57 384.17,90.42 C381.56,89.95 379.19,89.61 376.60,89.39 C381.14,89.28 384.00,89.14 384.00,88.99 C384.00,88.72 382.54,87.83 380.75,87.02 C380.18,86.76 379.49,86.55 378.61,86.37 C383.62,86.90 388.71,87.64 393.89,88.59 ZM 356.09 298.61 C355.15,297.48 355.76,296.81 359.28,295.11 C364.16,292.74 368.38,292.32 367.78,294.25 C367.45,295.33 359.62,299.84 357.87,299.96 C357.53,299.98 356.72,299.37 356.09,298.61 ZM 461.76 526.59 C461.95,525.56 462.00,524.39 461.92,523.23 C462.07,519.16 461.77,517.47 460.87,516.90 C459.85,516.25 460.06,516.03 461.68,516.02 C463.72,516.00 463.87,516.53 464.18,524.50 C464.35,529.18 464.27,532.97 464.00,532.92 C463.73,532.88 463.04,532.65 462.47,532.41 C461.93,532.18 461.67,529.96 461.76,526.59 ZM 303.41 523.25 L 303.41 523.26 C303.20,524.08 303.21,524.91 303.47,525.78 C303.58,527.79 303.86,529.57 304.20,530.25 C305.29,532.44 304.63,532.49 302.52,530.38 C301.36,529.22 300.99,527.34 301.20,523.71 C301.60,516.90 303.53,516.50 303.41,523.25 ZM 313.00 531.22 C313.00,530.61 313.45,529.84 314.00,529.50 C314.55,529.16 315.00,526.81 315.00,524.27 C315.00,519.15 315.81,519.10 316.88,524.17 C317.44,526.86 317.14,527.96 315.29,529.91 C314.03,531.23 313.00,531.82 313.00,531.22 ZM 246.87 524.25 C247.19,519.34 247.38,518.87 248.18,521.00 C249.15,523.58 248.46,530.00 247.20,530.00 C246.82,530.00 246.67,527.41 246.87,524.25 ZM 256.03 521.45 C256.01,519.77 255.46,517.86 254.80,517.20 C253.87,516.27 253.97,516.00 255.28,516.00 C257.38,516.00 258.55,520.23 257.12,522.68 C256.21,524.25 256.06,524.08 256.03,521.45 ZM 255.72 530.96 C256.01,529.84 256.32,529.05 256.41,529.21 C256.50,529.37 257.17,530.29 257.91,531.25 C259.08,532.78 258.99,533.00 257.22,533.00 C255.67,533.00 255.31,532.52 255.72,530.96 ZM 370.66 85.71 C367.88,85.63 364.40,85.61 360.00,85.63 C353.51,85.66 347.85,85.89 342.53,86.39 C351.74,85.36 361.08,85.13 370.66,85.71 ZM 497.57 173.47 C492.83,165.13 486.63,156.30 480.17,148.59 C487.26,156.85 492.82,164.68 497.57,173.47 ZM 344.63 89.76 C337.59,90.24 333.25,91.05 325.53,92.92 C319.46,94.39 312.43,96.32 308.49,97.58 C312.10,96.39 319.22,94.40 325.50,92.85 C333.81,90.79 337.08,90.05 344.63,89.76 ZM 420.29 106.64 C410.04,102.85 397.85,99.49 386.50,97.40 C399.35,99.77 410.20,102.69 420.29,106.64 ZM 413.97 93.75 C425.97,97.57 437.00,102.18 437.00,103.94 C437.00,102.26 425.35,97.53 413.97,93.75 ZM 477.65 213.75 C478.95,208.65 479.81,203.36 480.00,199.17 C479.93,203.44 479.05,208.58 477.65,213.75 ZM 339.21 213.83 C339.41,213.76 339.61,213.69 339.81,213.62 C344.26,212.02 349.61,211.13 354.91,210.95 C349.65,211.15 344.28,212.09 339.50,213.73 C339.40,213.77 339.31,213.80 339.21,213.83 ZM 457.63 127.65 C452.56,124.08 446.53,120.14 441.10,116.84 C443.62,118.33 446.15,119.91 448.71,121.59 C452.10,123.82 455.02,125.80 457.63,127.65 ZM 388.27 222.80 C387.47,222.10 387.12,221.50 387.11,221.04 C387.27,221.45 387.71,222.09 388.27,222.80 ZM 388.41 220.03 C389.44,219.97 390.96,220.41 392.44,221.53 C391.24,220.62 389.58,220.08 388.41,220.03 ZM 435.76 209.27 C440.79,208.36 445.70,207.18 449.19,205.95 C445.66,207.20 440.79,208.37 435.76,209.27 ZM 473.74 192.58 C472.74,193.15 471.57,193.89 470.20,194.81 C471.55,193.90 472.73,193.16 473.74,192.58 Z" fill="rgb(207,190,160)"/>
<path d="M 510.05 264.25 C509.48,262.19 509.01,259.54 509.01,258.36 C509.00,255.45 505.98,254.34 505.29,257.00 C504.62,259.55 502.00,259.62 502.00,257.09 C502.00,256.04 503.18,252.91 504.62,250.14 C507.50,244.59 507.32,239.99 504.23,240.01 C500.84,240.02 479.76,243.03 478.78,243.64 C478.23,243.98 477.46,243.75 477.08,243.13 C476.18,241.67 467.65,245.87 463.52,249.80 C461.51,251.71 459.80,252.49 458.27,252.20 C454.27,251.44 455.34,249.33 462.75,243.42 C464.54,241.99 466.00,240.16 466.00,239.34 C466.00,238.53 467.07,236.43 468.37,234.68 C474.55,226.40 480.00,209.49 480.00,198.62 C480.00,189.76 478.58,189.20 470.20,194.81 C461.35,200.73 456.04,203.55 449.19,205.95 C441.70,208.59 427.72,210.99 419.86,211.00 C413.07,211.00 408.88,212.62 405.93,216.36 C404.10,218.68 403.84,219.97 404.32,224.07 C404.70,227.30 404.53,229.00 403.82,229.00 C403.11,229.00 402.96,230.66 403.40,233.93 C404.47,242.06 402.34,241.66 397.01,232.75 C395.12,229.59 393.20,227.00 392.74,227.00 C391.77,227.00 387.08,221.86 387.03,220.75 C386.98,219.49 390.39,219.98 392.44,221.53 C393.51,222.34 394.73,223.00 395.17,223.00 C398.88,223.00 401.02,201.29 398.55,188.70 C395.82,174.84 388.57,161.59 375.60,146.76 C364.80,134.43 359.97,130.00 357.31,130.00 C354.79,130.00 350.07,135.48 340.10,150.00 C327.07,168.95 321.21,184.56 320.29,202.73 C319.79,212.57 319.93,214.03 321.37,214.59 C322.37,214.97 324.33,214.22 326.32,212.70 C335.73,205.53 350.22,202.55 362.12,205.35 C371.07,207.46 380.00,211.50 380.00,213.44 C380.00,215.48 377.72,215.37 371.00,213.00 C362.48,210.00 349.17,210.27 339.81,213.62 C335.79,215.05 331.87,216.74 331.10,217.37 C330.32,217.99 328.93,218.37 328.01,218.21 C327.05,218.05 324.53,219.87 322.16,222.44 C318.53,226.38 318.00,226.67 317.99,224.73 C317.98,223.50 316.19,220.53 314.02,218.12 C311.85,215.71 309.47,212.83 308.73,211.72 C307.47,209.82 306.19,209.67 288.73,209.43 L 270.07 209.17 L 266.78 206.06 C264.98,204.35 262.38,202.67 261.00,202.33 C258.76,201.77 252.70,197.63 249.17,194.26 C248.44,193.55 247.47,193.21 247.02,193.49 C246.58,193.76 245.95,193.32 245.64,192.49 C245.32,191.67 243.92,191.00 242.53,191.00 C240.09,191.00 239.99,191.24 239.83,197.75 C239.73,201.46 239.68,207.15 239.73,210.40 C239.77,213.64 239.46,215.74 239.04,215.07 C238.55,214.28 235.43,213.82 230.23,213.76 C222.31,213.68 222.13,213.74 219.09,217.06 C217.39,218.92 216.00,221.05 216.00,221.78 C216.00,222.52 215.63,222.89 215.17,222.61 C214.02,221.89 214.40,216.93 215.82,214.32 C216.47,213.11 217.00,209.91 217.00,207.19 C217.00,204.01 217.54,201.80 218.50,201.00 C219.32,200.32 220.00,198.33 220.00,196.58 C220.00,194.83 220.49,192.91 221.08,192.32 C221.68,191.72 223.03,187.93 224.09,183.90 C228.88,165.68 253.08,136.37 275.60,121.51 C300.48,105.10 328.27,96.20 357.50,95.29 C370.62,94.88 374.26,95.14 386.50,97.40 C401.61,100.18 418.20,105.22 429.71,110.52 C438.08,114.37 458.06,127.28 465.92,133.92 C477.95,144.09 492.51,163.03 500.41,178.79 C510.61,199.14 514.85,217.35 515.46,243.47 C515.88,261.62 515.54,266.45 513.89,265.43 C513.40,265.13 513.00,265.58 513.00,266.44 C513.00,269.41 511.09,267.99 510.05,264.25 ZM 296.42 203.13 C296.71,202.66 295.52,199.62 293.76,196.38 C292.01,193.15 289.21,185.12 287.54,178.55 L 284.50 166.61 L 274.15 162.62 C266.32,159.61 263.39,158.89 262.15,159.68 C260.89,160.46 260.30,163.18 259.66,171.07 C258.00,191.67 260.41,196.86 273.50,200.83 C277.35,202.00 281.40,203.14 282.50,203.36 C286.37,204.15 295.89,203.99 296.42,203.13 ZM 438.56 200.92 C448.02,198.45 455.57,194.56 458.42,190.67 C460.29,188.13 460.50,186.46 460.48,174.43 C460.44,156.23 460.64,156.40 446.46,162.14 C439.29,165.05 435.05,167.37 433.75,169.12 C432.61,170.66 431.17,175.42 430.29,180.62 C429.45,185.51 427.92,191.65 426.89,194.29 C424.18,201.16 424.37,203.00 427.81,203.00 C429.36,203.00 434.20,202.07 438.56,200.92 ZM 417.98 196.75 C421.21,189.42 424.00,176.90 424.00,169.73 C424.00,160.94 420.73,148.07 416.71,141.00 C410.35,129.83 407.18,126.10 403.97,126.03 C403.13,126.01 399.73,128.81 396.41,132.25 C386.74,142.27 387.03,140.75 392.88,150.89 C399.71,162.73 401.93,167.92 407.39,184.88 C409.93,192.75 412.25,199.60 412.56,200.10 C413.85,202.19 416.24,200.72 417.98,196.75 ZM 310.71 193.93 C315.09,175.64 319.19,165.16 326.84,152.73 C329.13,149.01 331.00,145.17 331.00,144.19 C331.00,142.42 323.67,134.74 319.03,131.65 C314.58,128.68 312.62,129.52 305.99,137.25 C297.66,146.96 294.83,153.30 294.23,163.59 C293.53,175.73 296.39,186.03 302.93,195.00 C307.73,201.57 308.92,201.41 310.71,193.93 ZM 234.07 222.94 C234.11,222.15 234.98,219.70 236.00,217.50 L 237.85 213.50 L 237.93 216.79 C237.97,218.78 237.21,220.93 236.00,222.23 C234.63,223.71 234.02,223.93 234.07,222.94 ZM 430.50 103.34 C428.30,102.47 423.12,100.53 419.00,99.02 C414.88,97.51 410.83,96.02 410.00,95.71 C409.17,95.39 405.13,94.40 401.02,93.50 C394.09,91.99 391.51,90.60 392.55,88.92 C394.19,86.26 437.00,100.73 437.00,103.94 C437.00,105.37 435.26,105.21 430.50,103.34 ZM 299.57 99.11 C298.67,97.65 301.03,96.43 311.00,93.22 C328.48,87.59 340.54,85.72 360.00,85.63 C373.38,85.57 378.27,85.90 380.75,87.02 C382.54,87.83 384.00,88.72 384.00,88.99 C384.00,89.27 373.76,89.53 361.25,89.57 C339.12,89.63 338.15,89.72 325.50,92.85 C318.35,94.61 310.12,96.94 307.21,98.03 C301.27,100.25 300.35,100.38 299.57,99.11 Z" fill="rgb(224,214,190)"/>
</g>
</svg>